<?xml version="1.0" encoding="UTF-8" standalone="no"?>
<!-- Created with Inkscape (http://www.inkscape.org/) -->

<svg
   xmlns:dc="http://purl.org/dc/elements/1.1/"
   xmlns:cc="http://creativecommons.org/ns#"
   xmlns:rdf="http://www.w3.org/1999/02/22-rdf-syntax-ns#"
   xmlns:svg="http://www.w3.org/2000/svg"
   xmlns="http://www.w3.org/2000/svg"
   xmlns:sodipodi="http://sodipodi.sourceforge.net/DTD/sodipodi-0.dtd"
   xmlns:inkscape="http://www.inkscape.org/namespaces/inkscape"
   width="43.448254mm"
   height="43.448112mm"
   viewBox="0 0 153.95051 153.95001"
   id="svg5093"
   version="1.1"
   inkscape:version="0.91 r13725"
   sodipodi:docname="calendar.svg">
  <defs
     id="defs5095" />
  <sodipodi:namedview
     id="base"
     pagecolor="#ffffff"
     bordercolor="#666666"
     borderopacity="1.0"
     inkscape:pageopacity="0.0"
     inkscape:pageshadow="2"
     inkscape:zoom="1.979899"
     inkscape:cx="76.489038"
     inkscape:cy="118.13099"
     inkscape:document-units="px"
     inkscape:current-layer="layer1"
     showgrid="false"
     fit-margin-top="0"
     fit-margin-left="0"
     fit-margin-right="0"
     fit-margin-bottom="0"
     inkscape:window-width="1301"
     inkscape:window-height="744"
     inkscape:window-x="65"
     inkscape:window-y="24"
     inkscape:window-maximized="1" />
  <metadata
     id="metadata5098">
    <rdf:RDF>
      <cc:Work
         rdf:about="">
        <dc:format>image/svg+xml</dc:format>
        <dc:type
           rdf:resource="http://purl.org/dc/dcmitype/StillImage" />
        <dc:title></dc:title>
      </cc:Work>
    </rdf:RDF>
  </metadata>
  <g
     inkscape:label="Layer 1"
     inkscape:groupmode="layer"
     id="layer1"
     transform="translate(619.92262,-929.397)">
    <g
       id="g512"
       transform="matrix(1.25,0,0,-1.25,-465.97262,1006.372)">
      <path
         d="m 0,0 c 0,-34.009 -27.571,-61.58 -61.58,-61.58 -34.009,0 -61.58,27.571 -61.58,61.58 0,34.01 27.571,61.58 61.58,61.58 C -27.571,61.58 0,34.01 0,0"
         style="fill:#fea529;fill-opacity:1;fill-rule:nonzero;stroke:none"
         id="path514"
         inkscape:connector-curvature="0" />
    </g>
    <g
       id="g516"
       transform="matrix(1.25,0,0,-1.25,-469.07462,984.74382)">
      <path
         d="m 0,0 -34.372,22.137 0,-57.761 -29.026,0 0,-19.563 -24.668,0 36.126,-23.268 c 30.635,3.549 54.422,29.567 54.422,61.153 C 2.482,-11.293 1.605,-5.492 0,0"
         style="fill:#c47103;fill-opacity:1;fill-rule:nonzero;stroke:none"
         id="path518"
         inkscape:connector-curvature="0" />
    </g>
    <g
       id="g520"
       transform="matrix(1.25,0,0,-1.25,-501.8175,1045.2037)">
      <path
         d="m 0,0 c 0,-4.542 -3.682,-8.224 -8.224,-8.224 l -48.883,0 c -4.542,0 -8.223,3.682 -8.223,8.224 l 0,52.995 c 0,4.54 3.681,8.222 8.223,8.222 l 48.883,0 C -3.682,61.217 0,57.535 0,52.995 L 0,0 Z"
         style="fill:#283c4c;fill-opacity:1;fill-rule:nonzero;stroke:none"
         id="path522"
         inkscape:connector-curvature="0" />
    </g>
    <g
       id="g528"
       transform="matrix(1.25,0,0,-1.25,-516.05425,957.25957)">
      <path
         d="m 0,0 0,-1.159 c 0.973,-0.315 1.681,-1.218 1.681,-2.298 0,-1.34 -1.086,-2.425 -2.427,-2.425 -1.341,0 -2.426,1.085 -2.426,2.425 0,1.044 0.662,1.927 1.587,2.269 l 0,1.188 -5.153,0 0,-1.159 c 0.974,-0.315 1.681,-1.218 1.681,-2.298 0,-1.34 -1.086,-2.425 -2.427,-2.425 -1.341,0 -2.427,1.085 -2.427,2.425 0,1.044 0.663,1.927 1.587,2.269 l 0,1.188 -5.152,0 0,-1.159 c 0.972,-0.315 1.679,-1.218 1.679,-2.298 0,-1.34 -1.086,-2.425 -2.426,-2.425 -1.34,0 -2.426,1.085 -2.426,2.425 0,1.044 0.661,1.927 1.586,2.269 l 0,1.188 -5.152,0 0,-1.159 c 0.973,-0.315 1.68,-1.218 1.68,-2.298 0,-1.34 -1.086,-2.425 -2.426,-2.425 -1.34,0 -2.427,1.085 -2.427,2.425 0,1.044 0.662,1.927 1.587,2.269 l 0,1.188 -5.152,0 0,-1.159 c 0.972,-0.315 1.68,-1.218 1.68,-2.298 0,-1.34 -1.085,-2.425 -2.426,-2.425 -1.341,0 -2.427,1.085 -2.427,2.425 0,1.044 0.662,1.927 1.587,2.269 l 0,1.188 -5.154,0 0,-1.159 c 0.973,-0.315 1.681,-1.218 1.681,-2.298 0,-1.34 -1.086,-2.425 -2.426,-2.425 -1.341,0 -2.428,1.085 -2.428,2.425 0,1.044 0.663,1.927 1.588,2.269 l 0,1.188 -5.154,0 0,-1.159 c 0.975,-0.315 1.682,-1.218 1.682,-2.298 0,-1.34 -1.086,-2.425 -2.427,-2.425 -1.34,0 -2.426,1.085 -2.426,2.425 0,1.044 0.661,1.927 1.586,2.269 l 0,1.188 -3.7,0 0,-29.353 49.34,0 L 3.623,0 0,0 Z"
         style="fill:#fd6e60;fill-opacity:1;fill-rule:nonzero;stroke:none"
         id="path530"
         inkscape:connector-curvature="0" />
    </g>
    <g
       id="g532"
       transform="matrix(1.25,0,0,-1.25,-512.09724,968.68257)">
      <path
         d="m 0,0 -24.488,0 0,-69.441 24.488,0 c 4.541,0 8.224,3.682 8.224,8.224 l 0,52.995 C 8.224,-3.682 4.541,0 0,0"
         style="fill:#0a2b3d;fill-opacity:1;fill-rule:nonzero;stroke:none"
         id="path534"
         inkscape:connector-curvature="0" />
    </g>
    <g
       id="g536"
       transform="matrix(1.25,0,0,-1.25,-516.05425,957.25957)">
      <path
         d="m 0,0 0,-1.159 c 0.973,-0.315 1.681,-1.218 1.681,-2.298 0,-1.34 -1.086,-2.425 -2.427,-2.425 -1.341,0 -2.426,1.085 -2.426,2.425 0,1.044 0.662,1.927 1.587,2.269 l 0,1.188 -5.153,0 0,-1.159 c 0.974,-0.315 1.681,-1.218 1.681,-2.298 0,-1.34 -1.086,-2.425 -2.427,-2.425 -1.341,0 -2.427,1.085 -2.427,2.425 0,1.044 0.663,1.927 1.587,2.269 l 0,1.188 -5.152,0 0,-1.159 c 0.972,-0.315 1.679,-1.218 1.679,-2.298 0,-1.34 -1.086,-2.425 -2.426,-2.425 -1.34,0 -2.426,1.085 -2.426,2.425 0,1.044 0.661,1.927 1.586,2.269 l 0,1.188 -5.152,0 0,-1.159 c 0.973,-0.315 1.68,-1.218 1.68,-2.298 0,-1.34 -1.086,-2.425 -2.426,-2.425 -0.124,0 -0.244,0.014 -0.362,0.034 l 0,-23.505 24.946,0 L 3.623,0 0,0 Z"
         style="fill:#e04a42;fill-opacity:1;fill-rule:nonzero;stroke:none"
         id="path538"
         inkscape:connector-curvature="0" />
    </g>
    <path
       d="m -546.15837,1016.0988 -27.58,0 0,-9.0062 27.58,0 0,9.0062 z"
       style="fill:#fffff4;fill-opacity:1;fill-rule:nonzero;stroke:none"
       id="path540"
       inkscape:connector-curvature="0" />
    <path
       d="m -512.19837,1016.0988 -27.58125,0 0,-9.0062 27.58125,0 0,9.0062 z"
       style="fill:#fffff4;fill-opacity:1;fill-rule:nonzero;stroke:none"
       id="path542"
       inkscape:connector-curvature="0" />
    <path
       d="m -529.74712,1052.7351 -27.58375,0 0,-9.0063 27.58375,0 0,9.0063 z"
       style="fill:#2aa8df;fill-opacity:1;fill-rule:nonzero;stroke:none"
       id="path544"
       inkscape:connector-curvature="0" />
    <path
       d="m -529.74712,1038.6626 -27.58375,0 0,-9.0063 27.58375,0 0,9.0063 z"
       style="fill:#2aa8df;fill-opacity:1;fill-rule:nonzero;stroke:none"
       id="path546"
       inkscape:connector-curvature="0" />
    <path
       d="m -555.44587,1025.3851 -9.00625,0 0,-27.58128 9.00625,0 0,27.58128 z"
       style="fill:#fffff4;fill-opacity:1;fill-rule:nonzero;stroke:none"
       id="path548"
       inkscape:connector-curvature="0" />
    <g
       id="g550"
       transform="matrix(1.25,0,0,-1.25,-513.38075,972.67907)">
      <path
         d="m 0,0 0,0 -46.37,0 0,2.969 L 0,2.969 0,0 Z"
         style="fill:#fffff4;fill-opacity:1;fill-rule:nonzero;stroke:none"
         id="path552"
         inkscape:connector-curvature="0" />
    </g>
    <g
       id="g554"
       transform="matrix(1.25,0,0,-1.25,-513.38075,979.95895)">
      <path
         d="m 0,0 0,0 -46.37,0 0,2.969 L 0,2.969 0,0 Z"
         style="fill:#fffff4;fill-opacity:1;fill-rule:nonzero;stroke:none"
         id="path556"
         inkscape:connector-curvature="0" />
    </g>
    <path
       d="m -542.64712,983.24382 -28.69625,0 0,3.71125 28.69625,0 0,-3.71125 z"
       style="fill:#fffff4;fill-opacity:1;fill-rule:nonzero;stroke:none"
       id="path558"
       inkscape:connector-curvature="0" />
  </g>
</svg>
