<?xml version="1.0" encoding="UTF-8" standalone="no"?>
<!-- Created with Inkscape (http://www.inkscape.org/) -->

<svg
   xmlns:dc="http://purl.org/dc/elements/1.1/"
   xmlns:cc="http://creativecommons.org/ns#"
   xmlns:rdf="http://www.w3.org/1999/02/22-rdf-syntax-ns#"
   xmlns:svg="http://www.w3.org/2000/svg"
   xmlns="http://www.w3.org/2000/svg"
   xmlns:sodipodi="http://sodipodi.sourceforge.net/DTD/sodipodi-0.dtd"
   xmlns:inkscape="http://www.inkscape.org/namespaces/inkscape"
   width="43.104633mm"
   height="43.1064mm"
   viewBox="0 0 152.73295 152.73921"
   id="svg4925"
   version="1.1"
   inkscape:version="0.91 r13725"
   sodipodi:docname="like.svg">
  <defs
     id="defs4927" />
  <sodipodi:namedview
     id="base"
     pagecolor="#ffffff"
     bordercolor="#666666"
     borderopacity="1.0"
     inkscape:pageopacity="0.0"
     inkscape:pageshadow="2"
     inkscape:zoom="1.979899"
     inkscape:cx="134.19644"
     inkscape:cy="69.419441"
     inkscape:document-units="px"
     inkscape:current-layer="layer1"
     showgrid="false"
     fit-margin-top="0"
     fit-margin-left="0"
     fit-margin-right="0"
     fit-margin-bottom="0"
     inkscape:window-width="1301"
     inkscape:window-height="744"
     inkscape:window-x="65"
     inkscape:window-y="24"
     inkscape:window-maximized="1" />
  <metadata
     id="metadata4930">
    <rdf:RDF>
      <cc:Work
         rdf:about="">
        <dc:format>image/svg+xml</dc:format>
        <dc:type
           rdf:resource="http://purl.org/dc/dcmitype/StillImage" />
        <dc:title></dc:title>
      </cc:Work>
    </rdf:RDF>
  </metadata>
  <g
     inkscape:label="Layer 1"
     inkscape:groupmode="layer"
     id="layer1"
     transform="translate(-204.45684,-391.08898)">
    <g
       id="g580"
       transform="matrix(1.25,0,0,-1.25,357.17241,467.48388)">
      <path
         style="fill:#523852;fill-opacity:1;fill-rule:nonzero;stroke:none"
         d="m 0,0 c 0.33343263,-24.018353 -15.104552,-47.181654 -37.305141,-56.279953 -21.809642,-9.499124 -48.902204,-4.583777 -65.916209,12.066257 -17.24107,16.019798 -23.53209,42.4124039 -15.485,64.511595 7.78149,22.906242 30.283326,39.795059 54.48323,40.702625 23.525099,1.520508 47.03943,-12.115228 57.5409004,-33.193561 C -2.2816039,19.243728 0.01465839,9.6256411 0,0 Z"
         id="path582"
         inkscape:connector-curvature="0" />
    </g>
    <g
       id="g584"
       transform="matrix(1.25,0,0,-1.25,357.10603,464.83313)">
      <path
         style="fill:#290d29;fill-opacity:1;fill-rule:nonzero;stroke:none"
         d="m 0,0 c -7.412,4.774 -14.824,9.548 -22.236,14.322 0,-6.4073333 0,-12.8146667 0,-19.222 -2.688975,0.5390798 -4.038176,-0.2616144 -3.34,-3.1096861 -0.540101,-1.5525239 1.177361,-5.3626119 -1.036562,-5.2413139 -20.491813,0 -40.983625,0 -61.475438,0 0,-5.010333 0,-10.020667 0,-15.031 -3.135333,0 -6.270667,0 -9.406,0 16.251333,-10.467 32.502667,-20.934 48.754,-31.401 -4.555288,-5.297309 6.221787,-0.223948 8.736936,0.216018 C -15.628926,-50.823466 1.2696436,-25.872743 0,0 Z"
         id="path586"
         inkscape:connector-curvature="0" />
    </g>
    <g
       id="g588"
       transform="matrix(1.25,0,0,-1.25,274.39853,452.15)">
      <path
         style="fill:#f3a794;fill-opacity:1;fill-rule:nonzero;stroke:none"
         d="M 0,0 C -2.2505784,6.1783226 -4.3420379,12.448509 -5.691,18.891 -13.044156,18.644169 -13.494404,9.0004263 -11.455172,3.6917969 -8.2116491,-5.0357509 -19.400015,-4.3133138 -24.553057,-2.3286428 -30.245246,0.18711619 -39.76157,-7.257933 -32.548,-11.835 c -4.100485,-1.73153 -4.364767,-7.267626 -1.426938,-9.360094 -3.098144,-2.702441 -2.01496,-9.110111 2.564938,-9.302906 -5.940931,-5.154991 2.107819,-10.813607 7.516252,-10.515957 12.012784,-1.917072 23.98492801,2.039008 34.570172,7.431656 1.935871,1.067733 0.478806,4.478901 0.930576,6.571673 0,7.106876 0,14.213752 0,21.320628 C 7.16849,-5.9918682 1.7010762,-4.641807 0,0 Z"
         id="path590"
         inkscape:connector-curvature="0" />
    </g>
    <g
       id="g592"
       transform="matrix(1.25,0,0,-1.25,305.97828,494.82575)">
      <path
         style="fill:#ebeded;fill-opacity:1;fill-rule:nonzero;stroke:none"
         d="M 0,0 C 0.07155623,-5.0623547 -5.3622232,-5.8715715 -9.2627274,-5.463 -13.153885,-5.9944984 -18.352378,-4.5518833 -17.981,0.34552067 -17.9086,9.623883 -18.126857,18.91686 -17.870006,28.185947 c 0.884501,4.764699 6.114354,4.490671 9.8437748,4.362053 C -3.9930358,33.259094 0.76048389,30.729682 0,26.048438 0,17.365625 0,8.6828127 0,0 Z"
         id="path594"
         inkscape:connector-curvature="0" />
    </g>
    <g
       id="g596"
       transform="matrix(1.25,0,0,-1.25,332.43566,499.66175)">
      <path
         style="fill:#3d8caa;fill-opacity:1;fill-rule:nonzero;stroke:none"
         d="m 0,0 c 0.07185622,-5.0625712 -5.3626124,-5.8701743 -9.2627274,-5.462 -5.7745396,0.067498 -11.5628576,-0.1391298 -17.3282196,0.1109512 -4.764803,0.8838434 -4.490663,6.1136513 -4.362053,9.8428176 0.07301,11.4619012 -0.146674,22.9385192 0.110994,34.3911352 0.884823,4.764327 6.114651,4.489444 9.843775,4.361096 5.544104,-0.06705 11.1019151,0.138518 16.6368482,-0.110951 C 0.40294551,42.248722 0.12850148,37.019214 0,33.290231 0,22.193487 0,11.096744 0,0 Z"
         id="path598"
         inkscape:connector-curvature="0" />
    </g>
    <g
       id="g600"
       transform="matrix(1.25,0,0,-1.25,292.60503,490.27388)">
      <path
         style="fill:#404040;fill-opacity:1;fill-rule:nonzero;stroke:none"
         d="M 0,0 C -2.8324442,-7.8200488 -8.2790979,5.2961101 -0.733375,1.77025 L -0.19676562,0.97428125 0,0 Z"
         id="path602"
         inkscape:connector-curvature="0" />
    </g>
  </g>
</svg>
