<?xml version="1.0" encoding="UTF-8" standalone="no"?>
<!-- Created with Inkscape (http://www.inkscape.org/) -->

<svg
   xmlns:dc="http://purl.org/dc/elements/1.1/"
   xmlns:cc="http://creativecommons.org/ns#"
   xmlns:rdf="http://www.w3.org/1999/02/22-rdf-syntax-ns#"
   xmlns:svg="http://www.w3.org/2000/svg"
   xmlns="http://www.w3.org/2000/svg"
   xmlns:sodipodi="http://sodipodi.sourceforge.net/DTD/sodipodi-0.dtd"
   xmlns:inkscape="http://www.inkscape.org/namespaces/inkscape"
   width="44.57806mm"
   height="44.57806mm"
   viewBox="0 0 157.95376 157.95376"
   id="svg5093"
   version="1.1"
   inkscape:version="0.91 r13725"
   sodipodi:docname="love.svg">
  <defs
     id="defs5095" />
  <sodipodi:namedview
     id="base"
     pagecolor="#ffffff"
     bordercolor="#666666"
     borderopacity="1.0"
     inkscape:pageopacity="0.0"
     inkscape:pageshadow="2"
     inkscape:zoom="0.35"
     inkscape:cx="499.2333"
     inkscape:cy="124.2333"
     inkscape:document-units="px"
     inkscape:current-layer="layer1"
     showgrid="false"
     fit-margin-top="0"
     fit-margin-left="0"
     fit-margin-right="0"
     fit-margin-bottom="0"
     inkscape:window-width="1301"
     inkscape:window-height="744"
     inkscape:window-x="65"
     inkscape:window-y="24"
     inkscape:window-maximized="1" />
  <metadata
     id="metadata5098">
    <rdf:RDF>
      <cc:Work
         rdf:about="">
        <dc:format>image/svg+xml</dc:format>
        <dc:type
           rdf:resource="http://purl.org/dc/dcmitype/StillImage" />
        <dc:title></dc:title>
      </cc:Work>
    </rdf:RDF>
  </metadata>
  <g
     inkscape:label="Layer 1"
     inkscape:groupmode="layer"
     id="layer1"
     transform="translate(124.2333,-498.64176)">
    <g
       id="g628"
       transform="matrix(1.25,0,0,-1.25,33.720446,577.61801)">
      <path
         d="m 0,0 c 0,-34.894 -28.288,-63.182 -63.181,-63.182 -34.894,0 -63.182,28.288 -63.182,63.182 0,34.895 28.288,63.181 63.182,63.181 C -28.288,63.181 0,34.895 0,0"
         style="fill:#e9e9e1;fill-opacity:1;fill-rule:nonzero;stroke:none"
         id="path630"
         inkscape:connector-curvature="0" />
    </g>
    <path
       d="m 33.720446,577.61801 c 0,-6.07625 -0.70875,-11.98375 -2.0075,-17.665 l -31.96999957,-21.585 -21.33875043,36.015 -16.09375,9.695 -7.96875,42.1325 32.08,23.75375 c 27.84125,-12.20875 47.29875,-39.9975 47.29875,-72.34625"
       style="fill:#c3c3ba;fill-opacity:1;fill-rule:nonzero;stroke:none"
       id="path634"
       inkscape:connector-curvature="0" />
    <g
       id="g636"
       transform="matrix(1.25,0,0,-1.25,3.5085664,545.40151)">
      <path
         d="m 0,0 c -2.717,7.907 -10.213,13.593 -19.042,13.593 -10.256,0 -18.715,-7.67 -19.97,-17.584 -1.255,9.914 -9.714,17.584 -19.97,17.584 -8.829,0 -16.326,-5.686 -19.042,-13.593 -1.031,-2.621 -1.465,-6.184 -1.093,-10.973 1.702,-21.948 34.029,-50.743 40.105,-54.166 6.006,3.02 38.403,32.218 40.106,54.166 C 1.465,-6.184 1.031,-2.621 0,0"
         style="fill:#fe3000;fill-opacity:1;fill-rule:nonzero;stroke:none"
         id="path638"
         inkscape:connector-curvature="0" />
    </g>
    <g
       id="g640"
       transform="matrix(1.25,0,0,-1.25,3.5085664,545.40151)">
      <path
         d="m 0,0 c -2.717,7.907 -10.213,13.593 -19.042,13.593 -10.256,0 -18.715,-7.67 -19.97,-17.584 -0.009,0.067 -0.025,0.132 -0.035,0.199 l 0,-61.326 c 0.01,-0.006 0.025,-0.016 0.035,-0.021 6.006,3.02 38.403,32.218 40.106,54.166 C 1.465,-6.184 1.031,-2.621 0,0"
         style="fill:#ba0b00;fill-opacity:1;fill-rule:nonzero;stroke:none"
         id="path642"
         inkscape:connector-curvature="0" />
    </g>
  </g>
</svg>
