<?xml version="1.0" encoding="UTF-8" standalone="no"?>
<!-- Created with Inkscape (http://www.inkscape.org/) -->

<svg
   xmlns:dc="http://purl.org/dc/elements/1.1/"
   xmlns:cc="http://creativecommons.org/ns#"
   xmlns:rdf="http://www.w3.org/1999/02/22-rdf-syntax-ns#"
   xmlns:svg="http://www.w3.org/2000/svg"
   xmlns="http://www.w3.org/2000/svg"
   xmlns:sodipodi="http://sodipodi.sourceforge.net/DTD/sodipodi-0.dtd"
   xmlns:inkscape="http://www.inkscape.org/namespaces/inkscape"
   width="44.225281mm"
   height="44.225281mm"
   viewBox="0 0 156.70375 156.70375"
   id="svg4925"
   version="1.1"
   inkscape:version="0.91 r13725"
   sodipodi:docname="monitor.svg">
  <defs
     id="defs4927" />
  <sodipodi:namedview
     id="base"
     pagecolor="#ffffff"
     bordercolor="#666666"
     borderopacity="1.0"
     inkscape:pageopacity="0.0"
     inkscape:pageshadow="2"
     inkscape:zoom="1.979899"
     inkscape:cx="134.76657"
     inkscape:cy="73.52511"
     inkscape:document-units="px"
     inkscape:current-layer="layer1"
     showgrid="false"
     fit-margin-top="0"
     fit-margin-left="0"
     fit-margin-right="0"
     fit-margin-bottom="0"
     inkscape:window-width="1301"
     inkscape:window-height="744"
     inkscape:window-x="65"
     inkscape:window-y="24"
     inkscape:window-maximized="1" />
  <metadata
     id="metadata4930">
    <rdf:RDF>
      <cc:Work
         rdf:about="">
        <dc:format>image/svg+xml</dc:format>
        <dc:type
           rdf:resource="http://purl.org/dc/dcmitype/StillImage" />
        <dc:title></dc:title>
      </cc:Work>
    </rdf:RDF>
  </metadata>
  <g
     inkscape:label="Layer 1"
     inkscape:groupmode="layer"
     id="layer1"
     transform="translate(-203.88671,-391.23011)">
    <g
       id="g688"
       transform="matrix(1.25,0,0,-1.25,360.59046,469.58261)">
      <path
         d="m 0,0 c 0,-34.618 -28.064,-62.681 -62.682,-62.681 -34.617,0 -62.681,28.063 -62.681,62.681 0,34.618 28.064,62.682 62.681,62.682 C -28.064,62.682 0,34.618 0,0"
         style="fill:#f0c311;fill-opacity:1;fill-rule:nonzero;stroke:none"
         id="path690"
         inkscape:connector-curvature="0" />
    </g>
    <path
       d="m 359.82896,458.76611 -31.66875,-21.09125 -32.1375,12.24125 -8.16125,24.485 -9.1825,0 0,32.85125 -26.14875,0 c -0.175,0.37625 -0.44625,0.705 -0.82375,0.9175 -1.67,0.9425 -3.8775,0.87375 -5.775,1.225 -0.595,0.11 -0.77375,0.17 -1.42875,0.205 l -0.71375,0.355 55.24625,36.15625 c 35.1975,-7.6925 61.555,-39.025 61.555,-76.52875 0,-3.67125 -0.2725,-7.27875 -0.76125,-10.81625"
       style="fill:#f79f24;fill-opacity:1;fill-rule:nonzero;stroke:none"
       id="path694"
       inkscape:connector-curvature="0" />
    <g
       id="g704"
       transform="matrix(1.25,0,0,-1.25,236.46658,437.67449)">
      <path
         d="m 0,0 c -0.629,-0.308 -1.068,-0.939 -1.068,-1.673 l 0,-48.153 c 0,-1.031 0.861,-1.877 1.914,-1.877 l 11.335,-0.022 19.564,0 0,-2.315 C 17.023,-54.366 6.531,-55.94 5.779,-57.868 l 31.338,0 0,11.905 -31.096,0 0,40.424 31.035,0 0,5.539 L 0,0 Z"
         style="fill:#213b56;fill-opacity:1;fill-rule:nonzero;stroke:none"
         id="path706"
         inkscape:connector-curvature="0" />
    </g>
    <g
       id="g720"
       transform="matrix(1.25,0,0,-1.25,323.75808,501.39186)">
      <path
         d="m 0,0 c -0.414,0 -0.751,0.336 -0.751,0.75 0,0.414 0.337,0.751 0.751,0.751 0.414,0 0.75,-0.337 0.75,-0.751 C 0.75,0.336 0.414,0 0,0 m -4.982,0 c -0.415,0 -0.751,0.336 -0.751,0.75 0,0.414 0.336,0.751 0.751,0.751 0.414,0 0.75,-0.337 0.75,-0.751 C -4.232,0.336 -4.568,0 -4.982,0 m -4.984,0 c -0.414,0 -0.75,0.336 -0.75,0.75 0,0.414 0.336,0.751 0.75,0.751 0.415,0 0.751,-0.337 0.751,-0.751 C -9.215,0.336 -9.551,0 -9.966,0 m -23.158,48.051 0,-2.616 30.5,0 0,-40.424 -30.5,0 0,-11.905 33.902,0 c -0.765,1.964 -13.301,3.563 -28.424,3.846 l 0,2.299 3.342,0.001 0,0.021 26.892,0.007 c 1.03,0 1.875,0.846 1.875,1.879 L 4.449,49.312 c 0,0.726 -0.423,1.351 -1.029,1.662 l -36.544,0 0,-2.923"
         style="fill:#132439;fill-opacity:1;fill-rule:nonzero;stroke:none"
         id="path722"
         inkscape:connector-curvature="0" />
    </g>
    <g
       id="g744"
       transform="matrix(1.25,0,0,-1.25,243.99246,495.12786)">
      <path
         d="m 0,0 30.688,0 0,4.681 0,35.743 L 0,40.424 0,0 Z"
         style="fill:#fffff4;fill-opacity:1;fill-rule:nonzero;stroke:none"
         id="path746"
         inkscape:connector-curvature="0" />
    </g>
    <g
       id="g748"
       transform="matrix(1.25,0,0,-1.25,282.35258,495.12786)">
      <path
         d="m 0,0 30.5,0 0,40.424 -30.5,0 L 0,4.681 0,0 Z"
         style="fill:#e9e9e1;fill-opacity:1;fill-rule:nonzero;stroke:none"
         id="path750"
         inkscape:connector-curvature="0" />
    </g>
  </g>
</svg>
