<?xml version="1.0" encoding="UTF-8" standalone="no"?>
<!-- Created with Inkscape (http://www.inkscape.org/) -->

<svg
   xmlns:dc="http://purl.org/dc/elements/1.1/"
   xmlns:cc="http://creativecommons.org/ns#"
   xmlns:rdf="http://www.w3.org/1999/02/22-rdf-syntax-ns#"
   xmlns:svg="http://www.w3.org/2000/svg"
   xmlns="http://www.w3.org/2000/svg"
   xmlns:sodipodi="http://sodipodi.sourceforge.net/DTD/sodipodi-0.dtd"
   xmlns:inkscape="http://www.inkscape.org/namespaces/inkscape"
   width="43.284424mm"
   height="43.284424mm"
   viewBox="0 0 153.37001 153.37001"
   id="svg5093"
   version="1.1"
   inkscape:version="0.91 r13725"
   sodipodi:docname="notes.svg">
  <defs
     id="defs5095" />
  <sodipodi:namedview
     id="base"
     pagecolor="#ffffff"
     bordercolor="#666666"
     borderopacity="1.0"
     inkscape:pageopacity="0.0"
     inkscape:pageshadow="2"
     inkscape:zoom="0.35"
     inkscape:cx="271.685"
     inkscape:cy="142.39929"
     inkscape:document-units="px"
     inkscape:current-layer="layer1"
     showgrid="false"
     fit-margin-top="0"
     fit-margin-left="0"
     fit-margin-right="0"
     fit-margin-bottom="0"
     inkscape:window-width="1301"
     inkscape:window-height="744"
     inkscape:window-x="65"
     inkscape:window-y="24"
     inkscape:window-maximized="1" />
  <metadata
     id="metadata5098">
    <rdf:RDF>
      <cc:Work
         rdf:about="">
        <dc:format>image/svg+xml</dc:format>
        <dc:type
           rdf:resource="http://purl.org/dc/dcmitype/StillImage" />
        <dc:title></dc:title>
      </cc:Work>
    </rdf:RDF>
  </metadata>
  <g
     inkscape:label="Layer 1"
     inkscape:groupmode="layer"
     id="layer1"
     transform="translate(-103.315,-521.39149)">
    <g
       id="g788"
       transform="matrix(1.25,0,0,-1.25,256.685,598.07649)">
      <path
         d="m 0,0 c 0,-33.882 -27.467,-61.348 -61.348,-61.348 -33.882,0 -61.348,27.466 -61.348,61.348 0,33.882 27.466,61.348 61.348,61.348 C -27.467,61.348 0,33.882 0,0"
         style="fill:#e73709;fill-opacity:1;fill-rule:nonzero;stroke:none"
         id="path790"
         inkscape:connector-curvature="0" />
    </g>
    <g
       id="g792"
       transform="matrix(1.25,0,0,-1.25,249.54851,565.77199)">
      <path
         d="m 0,0 c 0,0 -22.532,14.357 -25.169,15.076 -2.636,0.719 0.719,-66.261 0.719,-66.261 l -56.795,0 0,-13.6 33.112,-21.933 c 30.338,3.704 53.842,29.536 53.842,60.874 C 5.709,-16.608 3.655,-7.855 0,0"
         style="fill:#c10a00;fill-opacity:1;fill-rule:nonzero;stroke:none"
         id="path794"
         inkscape:connector-curvature="0" />
    </g>
    <g
       id="g796"
       transform="matrix(1.25,0,0,-1.25,216.54688,546.35487)">
      <path
         d="m 0,0 -2.176,0 0,-1.154 c 1.244,-0.314 2.148,-1.214 2.148,-2.289 0,-1.336 -1.388,-2.417 -3.101,-2.417 -1.714,0 -3.101,1.081 -3.101,2.417 0,1.04 0.846,1.92 2.028,2.26 l 0,1.183 -6.585,0 0,-1.154 c 1.244,-0.314 2.149,-1.214 2.149,-2.289 0,-1.336 -1.389,-2.417 -3.102,-2.417 -1.714,0 -3.102,1.081 -3.102,2.417 0,1.04 0.847,1.92 2.028,2.26 l 0,1.183 -6.584,0 0,-1.154 c 1.243,-0.314 2.146,-1.214 2.146,-2.289 0,-1.336 -1.388,-2.417 -3.1,-2.417 -1.713,0 -3.1,1.081 -3.1,2.417 0,1.04 0.845,1.92 2.026,2.26 l 0,1.183 -6.584,0 0,-1.154 c 1.243,-0.314 2.147,-1.214 2.147,-2.289 0,-1.333 -1.381,-2.41 -3.087,-2.415 -1.707,0.005 -3.088,1.082 -3.088,2.415 0,1.075 0.904,1.975 2.147,2.289 l 0,1.154 -6.584,0 0,-1.183 c 1.182,-0.34 2.027,-1.22 2.027,-2.26 0,-1.336 -1.388,-2.417 -3.1,-2.417 -1.712,0 -3.101,1.081 -3.101,2.417 0,1.075 0.903,1.975 2.146,2.289 l 0,1.154 -6.584,0 0,-1.183 c 1.182,-0.34 2.028,-1.22 2.028,-2.26 0,-1.336 -1.388,-2.417 -3.102,-2.417 -1.713,0 -3.101,1.081 -3.101,2.417 0,1.075 0.904,1.975 2.148,2.289 l 0,1.154 -6.585,0 0,-1.183 c 1.183,-0.34 2.028,-1.22 2.028,-2.26 0,-1.336 -1.387,-2.417 -3.1,-2.417 -1.714,0 -3.102,1.081 -3.102,2.417 0,1.075 0.904,1.975 2.148,2.289 l 0,1.154 -2.176,0 c -1.202,-0.18 -2.454,-0.754 -2.454,-2.375 l 0,-53.771 0.023,0 0,-14.139 c 0,-7.941 5.48,-12.461 13.42,-12.461 l 17.95,0 0.023,0 17.95,0 c 7.941,0 13.42,4.52 13.42,12.461 l 0,14.139 0.023,0 0,53.771 C 2.454,-0.754 1.202,-0.18 0,0"
         style="fill:#fffff4;fill-opacity:1;fill-rule:nonzero;stroke:none"
         id="path798"
         inkscape:connector-curvature="0" />
    </g>
    <path
       d="m 216.54688,546.35487 -2.72,0 0,1.4425 c 1.555,0.3925 2.685,1.5175 2.685,2.86125 0,1.67 -1.735,3.02125 -3.87625,3.02125 -2.1425,0 -3.87625,-1.35125 -3.87625,-3.02125 0,-1.3 1.0575,-2.4 2.535,-2.825 l 0,-1.47875 -8.23125,0 0,1.4425 c 1.555,0.3925 2.68625,1.5175 2.68625,2.86125 0,1.67 -1.73625,3.02125 -3.8775,3.02125 -2.1425,0 -3.8775,-1.35125 -3.8775,-3.02125 0,-1.3 1.05875,-2.4 2.535,-2.825 l 0,-1.47875 -8.23,0 0,1.4425 c 1.55375,0.3925 2.6825,1.5175 2.6825,2.86125 0,1.67 -1.735,3.02125 -3.875,3.02125 -2.14125,0 -3.875,-1.35125 -3.875,-3.02125 0,-1.3 1.05625,-2.4 2.5325,-2.825 l 0,-1.47875 -8.23,0 0,1.4425 c 1.55375,0.3925 2.68375,1.5175 2.68375,2.86125 0,1.66625 -1.72625,3.0125 -3.85875,3.01875 l -0.015,0 0,96.11 22.46625,0 c 9.92625,0 16.775,-5.65 16.775,-15.57625 l 0,-17.67375 0.0288,0 0,-67.21375 c 0,-2.02625 -1.565,-2.74375 -3.0675,-2.96875"
       style="fill:#e9e9e1;fill-opacity:1;fill-rule:nonzero;stroke:none"
       id="path802"
       inkscape:connector-curvature="0" />
  </g>
</svg>
